<svg width="121.1mm" height="138.4mm" version="1.1" viewBox="0 0 121.1 138.4" xml:space="preserve" xmlns="http://www.w3.org/2000/svg"><g transform="translate(-44.44 -45.09)"><path d="m101.6 180.6c-6.581-4.634-11.64-8.599-17.29-13.54-7.001-6.128-7.559-6.592-7.772-6.46l-0.2116 0.1308 0.3413 3.672h-0.2616c-0.1439 0-0.4771-0.2381-0.7405-0.5292s-0.5795-0.5292-0.7025-0.5292h-0.2236v2.646h-0.3125c-0.1719 0-1.178-0.6633-2.237-1.474l-1.924-1.474-4.362-4.479c-5.024-5.159-4.406-4.724-5.04-3.546l-0.5024 0.933-0.2853-0.0869c-0.4967-0.1512-5.141-7.222-6.746-10.27l-1.542-2.929-0.1862 1.808c-0.1024 0.9944-0.316 2.338-0.4748 2.985l-0.2886 1.177-2.326-2.619-1.022-2.117c-1.199-2.484-2.173-5.625-2.832-9.128l-0.4726-2.514 0.0169-5.689 0.0168-5.689 0.5902-2.778c0.8302-3.908 2.308-8.178 4.519-13.06l1.9-4.193-0.3429-0.3429-2.526 1.322c-1.389 0.7269-2.63 1.361-2.757 1.41l-0.2318 0.0882v-0.3859c0-0.5317 2.163-5.145 3.426-7.308 1.914-3.278 5.57-7.845 8.421-10.52l1.458-1.368-1.361-0.8374c-1.571-0.9666-1.617-1.094-0.6333-1.733 0.4002-0.2599 1.263-0.9149 1.918-1.456 1.407-1.162 4.769-3.468 7.041-4.83l1.618-0.9696-0.1998-1.196 2.583-1.879c4.687-3.409 8.004-5.481 12.45-7.777l2.197-1.134-0.1886-0.4262c-0.1037-0.2344-0.3697-1.309-0.591-2.387l-0.4024-1.961 0.6181-4.241 0.764-1.607c0.9811-2.064 2.285-3.547 4.3-4.893l1.61-1.075 3.442-1.063h4.346l1.437 0.4202c1.832 0.5358 3.613 1.667 5.012 3.186l1.102 1.196 1.296 2.83 0.2764 2.554-0.3911 1.455c-0.2151 0.8002-0.3711 1.466-0.3467 1.479 0.0245 0.01338 1.176-0.07979 2.558-0.2071l2.514-0.2314 5.292 0.3166 4.584 1.058 1.544 0.925c0.8493 0.5088 1.805 1.203 2.124 1.542l0.5796 0.6173 2.331 0.03085c2.761 0.03655 4.742 0.3645 7.541 1.249l2.059 0.6503 8.236 1.907 7.512 5.141 0.4715 0.3419 2.512-0.3805 1.79 0.01868 1.45 0.6918c1.655 0.7893 2.476 1.481 3.771 3.179l0.9121 1.195 0.4688 1.732 0.4688 1.732-0.1239 2.067-0.1239 2.067-1.352 2.647-2.836 2.68 0.1676 4.469-1.437 2.11 0.6187 8.334 0.6186 8.334 8e-3 5.692 8e-3 5.692-1.307 2.638-1.158 0.1648-0.7106 2.167c-0.3908 1.192-0.8057 2.27-0.922 2.398l-0.2114 0.231-1.591-1.133-0.1235 0.2032c-0.0679 0.1118-0.5675 1.394-1.11 2.849-2.19 5.873-4.447 9.614-8.857 14.68l-1.496 1.72-0.7314 2.646c-2.116 7.654-6.899 14.86-12.08 18.21l-0.6826 0.4411-0.1773-0.1773c-0.0975-0.0975-0.1773-0.5841-0.1773-1.081v-0.904l-0.2091 0.0882c-0.115 0.0485-2.109 1.355-4.432 2.902-5.597 3.73-19.48 11.67-20.28 11.6-0.0432-4e-3 -1.388-0.9289-2.989-2.056zm5.708-1.617c4.256-2.24 9.199-4.998 9.77-5.451 0.2183-0.1733 0.932-0.6006 1.586-0.9497s1.309-0.7211 1.455-0.8268c0.1463-0.1057 1.933-1.288 3.97-2.627 2.037-1.339 3.764-2.51 3.836-2.601 0.0728-0.0911 0.7276-0.616 1.455-1.166l1.323-1.001 0.0806 1.214 0.0806 1.214h0.224c0.4064 0 3.941-3.97 5.138-5.772 2.449-3.685 4.041-7.581 5.084-12.44l0.4737-2.209 0.6254 0.8553 0.4687-0.7153c0.2578-0.3934 0.8384-1.12 1.29-1.615 3.747-4.102 7.884-11.97 9.273-17.63l0.5793-2.362 0.644 1.288c0.3542 0.7083 0.7808 1.329 0.948 1.379l0.3039 0.0911 0.4396-2.593c0.2418-1.426 0.5002-2.884 0.5742-3.241l0.1346-0.6479 1.329 1.698 0.4868-0.3009v-4.95c0-4.838-0.1734-8.247-0.9109-17.91l-0.3637-4.762 1.584-3.309-0.1163-1.653c-0.064-0.9089-0.2042-1.91-0.3117-2.224l-0.1954-0.5712 1.017-0.4708c1.34-0.6206 2.394-1.726 3.089-3.24l0.5656-1.232 8e-3 -4.233-0.6615-1.299c-0.3638-0.7145-1.17-1.823-1.791-2.463l-1.13-1.164-1.922-0.803-3.335-0.05056-1.073 0.484c-1.386 0.6252-2.217 0.8681-1.694-0.9958l0.4338-1.546-1.457-0.4122 0.9886-0.7057 0.4685 1.118-15.02-5.01c-2.4-0.807-5.307-1.501-7.759-1.853l-2.202-0.3157-2.259 0.3097-0.9014-0.9389c-1.137-1.184-2.907-2.094-5.198-2.672l-1.788-0.451-10.32 0.0116-1.802 0.4485c-0.9913 0.2466-1.861 0.4485-1.932 0.4485-0.0711 0 0.1642-0.387 0.523-0.8599 0.3588-0.4729 0.9006-1.6 1.204-2.505l0.5518-1.645v-2.114l-1.052-2.812-1.26-1.223c-1.526-1.481-2.873-2.184-5.047-2.633l-1.642-0.339-3.481 0.5963-2.874 1.406-2.658 2.589-1.698 3.585 1e-3 2.646 1e-3 2.646 0.7796 1.588c0.4288 0.8731 0.8187 1.658 0.8664 1.744 0.0477 0.0859-1.078 0.6783-2.501 1.316-6.887 3.088-15.26 8.665-13.81 9.201l0.555 0.2053-2.606 1.537c-6.999 4.128-10.12 6.937-6.951 6.258 1.786-0.3829 1.879-0.2331 0.5688 0.9152-3.021 2.648-9.186 10.13-11.53 14-1.377 2.268-1.369 2.283 0.6558 1.216 1.785-0.941 4.281-1.947 4.133-1.667-0.5718 1.087-1.313 2.973-1.898 4.832l-0.7084 2.249-0.7705 1.202c-2.177 3.397-4.53 9.774-5.601 15.18l-0.5804 2.93 3e-3 4.63 3e-3 4.63 0.4556 2.514c0.576 3.178 1.294 5.601 2.334 7.872l0.8172 1.785 0.1974-0.7938c0.1086-0.4366 0.4692-2.371 0.8014-4.299 0.7843-4.552 0.6454-4.599 2.519 0.8599 1.393 4.06 5.645 12.25 6.185 11.92l0.1966-0.1215-0.2191-1.664c-0.1205-0.9153-0.2848-1.942-0.3651-2.282l-0.1461-0.6175 0.2584 0.1597c0.1421 0.0878 0.807 0.9446 1.478 1.904 3.92 5.607 12.11 14.41 12.78 13.74 0.0756-0.0756-0.0599-0.8833-0.3012-1.795-0.4196-1.585-1.229-5.625-1.229-6.133-7e-5 -0.38 2.153 2.786 2.569 3.777 0.4489 1.07 0.5254 1.013 1.094-0.8235l0.444-1.435 4.892 4.746c6.734 6.533 13.85 12.44 20.72 17.19 3.453 2.39 3.229 2.35 5.755 1.021zm0.9065-13.44c-1.367-0.7377-3.348-2.301-5.953-4.697-3.443-3.168-4.64-4.036-8.461-6.136l-3.302-1.814-3.715-3.639 1.058 0.7434c0.5821 0.4089 1.418 1.049 1.857 1.423 0.9366 0.7966 3.236 2.277 6.742 4.34l2.514 1.479 3.043 2.691c1.673 1.48 3.876 3.349 4.895 4.152 2.698 2.128 2.826 2.269 1.323 1.458zm9.158-6.304c-2.069-0.5787-4.284-1.84-6.071-3.456l-1.564-1.415-2.48-3.63-2.888-7.063-0.5061-2.533c-0.2784-1.393-0.6483-3.902-0.8221-5.576l-0.316-3.043 0.3412-8.996-1.099-1.441c-0.6045-0.7925-1.258-1.821-1.452-2.286l-0.3531-0.8451-0.1754-2.104-0.1754-2.104 0.324-3.151c0.1782-1.733 0.4116-3.308 0.5186-3.501l0.1946-0.3496 1.156 4.403-0.01 2.249c-5e-3 1.237-0.115 2.702-0.2434 3.255l-0.2335 1.006 0.2918-0.0973c0.1605-0.0535 0.6954-0.6829 1.189-1.399l0.8968-1.301-0.1808-1.459c-0.0995-0.8027-0.2847-1.638-0.4116-1.856l-0.2307-0.3969-0.0688 1.588-0.2118-0.6614c-0.1165-0.3638-0.2234-1.554-0.2375-2.646l-0.0257-1.984 0.6395-2.387c1.183-4.415 2.676-7.687 7.298-15.99 2.492-4.477 8.201-15.87 8.201-16.36 0-0.1287-0.6251-0.5753-1.389-0.9925l-1.389-0.7584-4.869-0.2167-1.737 0.8131c-0.9556 0.4472-1.972 0.9771-2.258 1.178l-0.5205 0.3646 2.237 0.8497c1.23 0.4673 2.303 0.9564 2.383 1.087 0.0806 0.1304-0.8979-0.1826-2.175-0.6956-1.277-0.513-2.542-0.9993-2.811-1.081l-0.4898-0.148 4.419-2.812 2.505-0.603 1.38 0.1898c1.8 0.2476 3.461 0.9746 5.165 2.261 1.689 1.274 1.665 1.274 1.665 0.0049v-1.035l0.8599-0.7251c0.4729-0.3988 1.243-0.8856 1.711-1.082l0.8514-0.3568 8.616 0.04534-1.903 0.4918c-2.085 0.5389-3.201 1.039-4.516 2.023l-0.8623 0.6456-0.5321 1.043c-0.6922 1.357-0.4625 1.317 0.8909-0.1542l1.101-1.197 1.567-0.5409c0.8617-0.2975 2.667-0.7708 4.013-1.052l2.446-0.5108 8.114-0.04932 1.835 0.429c1.009 0.2359 2.617 0.8103 3.572 1.276l1.737 0.8474 2.722 2.698 2.418 4.985 0.4221 1.72 0.4221 1.72 0.289 7.144-0.418 1.773c-0.7182 3.045-2.393 6.838-6.771 15.34l-4.233 8.217-1.731 2.567c-1.74 2.58-4.281 5.858-6.067 7.825l-0.9607 1.058 1.018-1.72c4.547-7.685 6.486-11.92 8.54-18.66l1.368-4.489 0.0351-1.984 0.0351-1.984-1.323-2.36-1.57-1.101c-0.8637-0.6054-2.173-1.313-2.91-1.573-0.737-0.2599-1.616-0.5734-1.954-0.6967l-0.6141-0.2241 0.5479-0.6966c1.078-1.37 0.6805-1.766-0.7657-0.7639l-0.9452 0.655-3.09 0.2709c-10.8 0.947-17.62 5.314-23.46 15.04l-1.289 2.145-3.213 9.68-0.5364 2.778c-0.295 1.528-0.6582 3.787-0.8071 5.02l-0.2707 2.242 1e-3 4.108 1e-3 4.108 0.3936 2.427c1.015 6.259 3.508 11.27 6.943 13.97l1.519 1.192 3.399 1.361 4.364 0.308 1.281-0.3221c1.311-0.3297 2.885-1.049 4.988-2.282l1.188-0.6961v0.2476c0 0.1362-0.8351 1.088-1.856 2.114l-1.856 1.867-2.506 1.198-4.233 0.1752zm31.59-69.51c3.034-1.537 3.696-2.421 4.519-6.038l0.4401-1.935-0.1453-1.408-0.1453-1.408-1.275-2.786-2.718-2.791-3.367-1.576-1.829-0.3875c-4.103-0.8692-7.517-0.3128-10.85 1.768l-1.614 1.007-2.75 2.907-0.3845 0.9203c-0.2115 0.5062-0.3846 1.318-0.3846 1.803v0.8826l1.355 2.72 1.108 1.115c1.943 1.955 7.766 5.513 9.905 6.052l0.9933 0.2503 5.292-0.1597zm-2.393-2.441-0.6494-0.6494v-2.246l0.6783-2.224c0.9064-2.972 0.4428-3.274-1.38-0.9011l-0.8338 1.086-0.564 1.667c-1.115 3.297-1.981 3.51-1.108 0.2722 0.8355-3.096 0.6325-4.451-0.8189-5.468l-0.5896-0.4129h-1.617l-1.161 0.8131-0.5669 2.105 0.3395 1.81 0.503 0.4552c0.6051 0.5476 0.6229 0.7446 0.1136 1.254l-0.3894 0.3893-1.089-0.2448c-2.007-0.4509-4.482-2.185-4.482-3.141 0-0.1225-0.0664-0.3957-0.1476-0.6073s0.4394 0.1812 1.157 0.8728l1.305 1.257 1.941 0.6407 0.766-0.2939-0.2616-0.6881c-0.1439-0.3785-0.2616-1.238-0.2616-1.91v-1.222l1.047-2.163 1.548-0.9145h3.661l2.608 0.8802 3.307 3.358v0.776l-1.5-0.2999-1.361 1.618-0.357 2.113 0.3426 1.079 1.336 0.3352 2.068-0.6195 0.5532-0.5849c0.3043-0.3217 0.8403-1.146 1.191-1.833l0.638-1.248-6e-3 -1.266-6e-3 -1.266-0.4928-1.085c-0.9905-2.181-3.509-4.056-6.601-4.913l-1.747-0.4843h-4.281l-1.404 0.4168c-0.772 0.2293-2.546 0.9969-3.942 1.706-2.812 1.428-2.902 1.44-2.32 0.3145 0.5399-1.044 1.843-2.118 3.486-2.874l1.34-0.6162 3.39-0.4636 1.86 0.2119c1.023 0.1166 2.608 0.4465 3.523 0.7333l1.663 0.5214 1.71 1.114c1.957 1.275 3.122 2.5 3.705 3.897l0.4066 0.973 0.0124 1.617 0.0124 1.617-0.4277 1.024c-0.8612 2.061-3.344 4.359-4.708 4.359h-0.4894zm-28.43 67.43c-0.8004-0.2112-2.173-0.7336-3.05-1.161l-1.595-0.777-3.229-2.922-0.8534-1.33c-0.4694-0.7315-1.085-2.074-1.368-2.983l-0.515-1.653-0.3777-4.762c-0.2078-2.619-0.3802-5.451-0.3832-6.292l-5e-3 -1.53 0.8764-0.3363 1.445 1.617 1.185 3.102 0.016 2.117-0.8674 1.969c-0.4771 1.083-0.9281 2.422-1.002 2.975l-0.1349 1.006 0.3409 1.258c0.1875 0.6918 0.5607 1.7 0.8293 2.241l0.4884 0.9833 1.113 0.5957 1.096-0.1305c3.048-0.3627 5.469-0.7683 6.728-1.127l1.398-0.3986 0.5111 0.3159v1.617l-1.39 2.555-2.087 0.835-1.701-0.1743c-1.874-0.192-2.099-0.0562-0.9203 0.5535l0.7806 0.4037h2.161l2.583-1.309 0.7166-1.528c0.8871-1.892 0.6595-1.699 2.158-1.827 0.6995-0.0595 1.906-0.2354 2.682-0.391 1.948-0.3907 1.988-5e-3 0.267 2.572l-0.7272 1.089-1.947 0.9238-3.166-0.229 0.4738 0.3465c0.2606 0.1906 0.8746 0.4217 1.364 0.5136l0.8906 0.1671 2.355-0.6593 2.021-2.193 1.215-2.932 1.229-0.7574c0.6758-0.4166 1.725-1.153 2.332-1.637 1.722-1.374 1.772-0.6197 0.1832 2.749l-0.9004 1.909-2.857 3.086-2.556 1.384-1.57 0.2875c-0.8635 0.1581-2.292 0.2797-3.175 0.2701l-1.605-0.0174zm-24.36-3.913c-0.797-0.6255-2.637-2.427-4.089-4.003-1.452-1.576-4.131-4.423-5.953-6.327-3.895-4.069-7.102-7.779-9.742-11.27l-1.902-2.514-3.618-7.196-0.9116-3.72 0.1736-1.519 6.993 14.02 2.25 2.994c4.804 6.392 8.859 10.59 12.33 12.76 1.034 0.647 2.423 1.534 3.088 1.97l1.208 0.7938 0.8818 2.498c1.056 2.991 1.09 2.919-0.7114 1.505zm28.01-3.637-0.7107-0.7624-0.6122 9e-3c-0.3367 5e-3 -1.088 0.239-1.671 0.5202l-1.058 0.5112-1.92 0.018-0.2603-0.3307c-0.1432-0.1819-0.3315-0.7936-0.4186-1.359l-0.1583-1.029-0.654-0.9557c-0.3597-0.5256-1.127-2.087-1.705-3.469l-1.051-2.514-0.1635-1.768c-0.0899-0.9727-0.3398-2.268-0.5553-2.879l-0.3918-1.11-1.924-2.13 0.1891-2.406c0.104-1.323 0.292-4.132 0.4178-6.242 0.1258-2.11 0.2358-3.866 0.2445-3.903 9e-3 -0.0364 0.4091-0.0662 0.8899-0.0662h0.8741l2.697 1.344 1.192 1.275c3.076 3.288 3.522 6.042 2.53 15.62l-0.5641 5.444 0.2868 2.177c0.2661 2.019 0.7209 3.456 1.004 3.173 0.066-0.066-2.5e-4 -0.6418-0.1473-1.279s-0.2702-2.037-0.2738-3.109l-7e-3 -1.95 0.7078-4.268 0.7078-4.268 0.0182-4.101 0.0182-4.101-0.9906-2.787c-0.5448-1.533-0.9906-2.866-0.9906-2.962 0-0.603 5.784 2.122 7.492 3.529l0.9903 0.8163 0.4888 0.9666c0.2688 0.5316 0.6942 1.86 0.9451 2.951l0.4563 1.984 0.2807 5.578-0.4534 1.559c-0.2493 0.8577-0.9199 2.73-1.49 4.162-0.5702 1.431-1.037 2.852-1.037 3.158v0.5562l0.3471-0.2881c0.1909-0.1584 0.8605-1.274 1.488-2.48 0.6274-1.205 1.317-2.37 1.532-2.589l0.3907-0.3969-0.179 0.926c-0.0985 0.5093-0.469 1.9-0.8233 3.091l-0.6443 2.165-2.189 1.874-0.9228 2.061-0.6167 0.4319c-0.76 0.5323-0.7389 0.5374-1.607-0.3932zm-11.39 0.0975c-0.651-0.7464-0.9368-1.441-1.134-2.758l-0.1855-1.237 0.6257-1.896 0.9523-0.5096 2.188 3.383 1.58 0.6994-4e-3 0.7953c-7e-3 1.353-0.8303 1.986-2.583 1.986h-1.035zm16.46-0.3918c8e-5 -0.0392 0.2329-0.6836 0.5174-1.432 0.2845-0.7485 0.8364-2.594 1.226-4.101l0.7091-2.74-0.1602-5.556c-0.1836-6.37-0.4706-8.867-1.278-11.12l-0.5718-1.596 0.3417-1.361 1.488-1.427c0.8184-0.7851 1.624-1.553 1.791-1.707 0.4493-0.4147 3.366-2.369 4.556-3.053 2.58-1.482 3.699-2.082 3.891-2.087l0.2078-5e-3 -0.2747 0.5132c-0.1511 0.2823-1.359 1.741-2.684 3.241-1.325 1.5-2.951 3.552-3.614 4.56l-1.204 1.832-1.302 3.743-0.0758 19.05-0.7866 2.066-0.6615 0.4623c-0.571 0.3991-2.117 0.9233-2.117 0.7178zm-51.46-29.49c-0.3992-0.9885-0.9633-2.571-1.253-3.517l-0.5276-1.72-0.1351-4.22-0.1351-4.22 0.6431-3.599h0.4811v9.233l0.3936 2.99c0.2165 1.645 0.625 3.822 0.9078 4.838 0.6647 2.389 0.5343 2.464-0.3743 0.2136zm56.49-9.362c0.3638-0.2979 1.502-0.9527 2.53-1.455l1.869-0.9135 1.555-0.253c1.858-0.3025 2.191-0.1815 0.6013 0.2188-0.6262 0.1577-2.422 0.8874-3.99 1.621-3.126 1.463-3.559 1.595-2.565 0.7814zm10.7-2.121c1.43-2.46 2.795-5.41 2.795-6.04 0-0.6157 0.2705-0.6993 0.7408-0.229l0.3175 0.3175-0.012 1.879-0.5367 1.183c-0.7597 1.675-1.661 2.774-3.068 3.742l-1.219 0.839zm-21.11-2.228c-0.0998-1.888-0.2488-3.8-0.3309-4.249l-0.1494-0.8171 1.284-0.5524c0.7062-0.3038 1.866-0.6989 2.577-0.8779l1.293-0.3255 0.7568 1.009-0.1126 1.237-0.1125 1.237-1.388 2.836-3.636 3.936zm19.63-0.3488 0.0889-3.33 0.3809-0.7365c0.4896-0.9467 0.3387-0.9276-0.8389 0.1064l-0.96 0.8429-0.8765-0.5494-0.1612-2.459h2.445l0.5779 0.3037c0.3178 0.167 0.9192 0.6567 1.336 1.088l0.7584 0.7845-0.2423 2.522-1.005 1.95c-0.5526 1.073-1.137 2.143-1.299 2.379l-0.294 0.4286zm-69.28-2.747c-0.029-2.327 5.327-10.56 8.752-13.45 2.06-1.74 2.285-1.799 0.7439-0.1954l-1.349 1.405-2.969 4.498c-1.633 2.474-3.465 5.272-4.072 6.218s-1.105 1.633-1.106 1.527zm56.59-2.879-0.5714-1.881 0.3654-0.2314c0.201-0.1273 0.6743-0.2332 1.052-0.2354l0.6866-0.0041 0.8758 0.9677v0.5882c0 0.3235-0.2679 1.057-0.5953 1.631l-0.5953 1.043-0.6462 4e-3zm8.004 0.9353c-0.3827-0.84-0.2025-1.171 0.638-1.171h0.6458v1.852h-0.9734zm-4.478-0.5243-0.588-0.4119v-1.539l0.5118-0.2739c0.2815-0.1506 0.7669-0.2739 1.079-0.2739h0.5669l0.7734 0.7734c1.444 1.444-0.5982 2.947-2.343 1.725zm-56.08-10.17c1.145-1.927 2.69-3.557 5.02-5.296l2.185-1.631 2.646-1.293c4.15-2.028 6.143-2.638 5.813-1.778l-0.1522 0.3967-6.598 3.304-2.971 2.132c-1.634 1.173-3.799 2.857-4.811 3.744l-1.839 1.612zm39.35-12.02c0-0.2269 0.1191-0.4125 0.2646-0.4125s0.2646 0.112 0.2646 0.249-0.1191 0.3226-0.2646 0.4125l-0.2646 0.1635z" fill="#fff"/><path d="m101.8 178c-3.716-2.601-7.533-5.549-12.29-9.487l-3.836-3.178-9.882-9.719-0.9212 3.283-0.5513-1.03c-2.936-5.486-3.171-4.777-1.274 3.855l0.141 0.6416-0.799-0.5689c-0.4394-0.3129-2.303-2.13-4.141-4.038l-3.342-3.469-3.174-4.242c-1.746-2.333-3.174-4.079-3.173-3.879s0.1082 0.7792 0.2388 1.289c0.1305 0.5093 0.3056 1.575 0.3891 2.367l0.1518 1.441-0.6199-0.9122c-2.23-3.282-5.045-9.317-6.102-13.08-0.4451-1.585-1.07-2.734-1.34-2.464-0.2275 0.2275-1.437 6.603-1.444 7.61l-6e-3 0.9128-0.2345-0.2514c-0.129-0.1382-0.6576-1.323-1.175-2.633l-0.9401-2.381-1.194-5.556-0.012-11.11 0.6008-2.778c1.121-5.182 3.582-11.7 5.515-14.6l0.7629-1.145 0.7528-2.381c0.414-1.31 1.037-2.947 1.385-3.638l0.6321-1.257-0.4675 0.0028c-0.2571 0.0015-1.539 0.5257-2.849 1.165s-2.425 1.12-2.479 1.068c-0.5974-0.5745 7.756-11.12 12.24-15.45 1.534-1.483 1.525-1.582-0.122-1.282-0.7385 0.1342-1.538 0.2065-1.776 0.1606l-0.4336-0.0835 2.768-2.009c1.523-1.105 4.114-2.823 5.759-3.818l2.99-1.809-1.157-0.6194 2.087-1.547c3.044-2.256 8.259-5.334 11.76-6.941l3.055-1.402-1.589-3.206-0.1106-2.313-0.1106-2.313 0.835-2.872 2.013-2.881 2.598-1.964 3.615-1.162 4.097 0.2449 3.011 1.434 2.572 2.814 0.3174 1.059c0.1746 0.5826 0.3174 1.666 0.3174 2.408v1.348l-1.113 2.974-0.794 0.9044c-0.4367 0.4974-0.7296 0.9044-0.6508 0.9044 0.0788 0 0.9543-0.2031 1.946-0.4512l1.802-0.4512 11.11-0.02356 1.455 0.3709c0.8004 0.204 1.958 0.5852 2.572 0.8471l1.116 0.4762 2.351 2.168 5.734 0.176 3.043 0.8175c1.673 0.4496 3.529 0.9595 4.124 1.133l1.081 0.3157 0.622 0.552 3.722-0.33 4.249 1.621 3.338 2.124 1.452 2.53-0.133 0.8948 0.7606-0.1496c0.4183-0.08229 1.309-0.2927 1.979-0.4675l1.218-0.3179 2.389 0.3583 2.391 1.516 0.873 1.269c0.4802 0.6979 1.024 1.691 1.209 2.207l0.3356 0.9385 0.0116 1.479 0.0116 1.479-0.3746 1.245c-0.206 0.6845-0.6938 1.663-1.084 2.175l-0.7093 0.93-1.231 0.5742c-0.6772 0.3158-1.268 0.5935-1.313 0.6172-0.045 0.02364 0.1152 0.7207 0.356 1.549l0.4378 1.506-0.1752 0.9338c-0.0964 0.5136-0.489 1.574-0.8725 2.356l-0.6973 1.422 0.4652 6.287c0.2558 3.458 0.5663 8.283 0.6899 10.72l0.2247 4.434-0.2969 6.444-1.66-1.977-0.332 2.328c-0.1826 1.281-0.4541 2.79-0.6034 3.354l-0.2714 1.026-0.2705-0.2705c-0.1488-0.1488-0.5394-0.8485-0.868-1.555l-0.5975-1.285-0.3154 1.587c-1.129 5.685-4.604 12.67-9.139 18.36l-2.101 2.638-0.6257-0.8557-0.1561 0.5125c-0.0858 0.2819-0.3459 1.445-0.578 2.585-1.199 5.893-3.983 11.3-7.957 15.47l-1.938 2.033-0.0108-1.257c-0.0133-1.554 0.1055-1.568-2.342 0.2812-5.372 4.06-22.54 14.34-23.96 14.34-0.059 0-1.394-0.9006-2.966-2.001zm9.673-10.83c0-0.0728-0.0595-0.1323-0.1323-0.1323-0.0728 0-0.1323 0.0595-0.1323 0.1323 0 0.0728 0.0595 0.1323 0.1323 0.1323s0.1323-0.0595 0.1323-0.1323zm-1.024-0.5962c-2.346-1.632-5.172-3.895-8.39-6.719l-3.725-3.268-1.434-0.7737c-2.665-1.438-5.922-3.552-7.784-5.052-1.019-0.8209-2.069-1.611-2.335-1.756l-0.483-0.2634 0.2783 0.5199c0.153 0.286 1.042 1.218 1.975 2.071l1.697 1.551 7.599 4.335 1.512 1.272c0.8314 0.6997 2.697 2.346 4.145 3.658l2.634 2.386 2.205 1.248c2.138 1.211 3.379 1.677 2.107 0.7922zm13.8-7.565 1.416-0.6929 1.937-1.997c2.455-2.532 2.267-2.673-1.198-0.8997l-2.8 1.433h-6.44l-4.145-1.979-3.264-3.313-1.997-3.44-0.7682-2.391c-0.4225-1.315-0.9783-3.458-1.235-4.762l-0.467-2.372 2.7e-4 -4.762 2.6e-4 -4.762 0.3279-2.117c0.1803-1.164 0.5703-3.35 0.8666-4.856l0.5388-2.74 1.425-4.197c1.625-4.784 2.652-6.946 4.643-9.77l1.399-1.984 5.086-5.051 1.878-1.249c2.408-1.601 3.59-2.114 6.774-2.941l2.592-0.6734 3.094-0.2797c3.956-0.3576 4.086-0.3888 5.058-1.206l0.8141-0.6851v0.3847c0 0.2116-0.2402 0.6901-0.5338 1.063l-0.5338 0.6786 0.2031 0.1236c0.1117 0.06797 1.156 0.492 2.32 0.9424l2.117 0.8188 2.646 1.993 1.233 2.377-0.1422 2.117-0.1422 2.117-1.323 4.261c-1.933 6.225-4.59 12.01-8.401 18.29-1.622 2.673-1.332 2.639 1.026-0.1189 4.698-5.495 6.415-8.261 12.11-19.52l4.418-8.731 1.78-5.292-0.016-7.673-1.154-4.684-2.492-4.841-2.443-2.392-1.566-0.8321c-0.8613-0.4577-2.34-1.042-3.286-1.299-1.83-0.6555-3.771-0.5746-5.689-0.6756-2.183-0.115-6.407-0.3323-9.387-0.4829l-5.418-0.2739-2.657 0.7751-1.784 1.494-0.1677 1.032-0.1677 1.032-0.9467-0.8312c-0.5207-0.4572-1.592-1.155-2.38-1.551l-1.433-0.72-4.032-0.2338-0.8946 0.2962c-0.492 0.1629-1.906 0.9437-3.143 1.735l-2.248 1.439 0.5285 0.1903c0.2907 0.1046 1.692 0.648 3.114 1.207 1.422 0.5595 2.728 1.017 2.903 1.017h0.3181l-0.6536-0.4578c-0.36-0.2518-1.575-0.8235-2.699-1.27l-2.045-0.8125 3.825-2.089 4.762 0.03062 1.191 0.5498c0.6548 0.3024 1.403 0.7133 1.662 0.9132l0.4718 0.3634-0.8596 1.585c-0.4728 0.8715-1.717 3.401-2.764 5.621-1.048 2.22-2.436 4.958-3.084 6.085-5.941 10.32-8.355 15.61-9.339 20.47l-0.4366 2.155 0.1819 1.846c0.1 1.015 0.285 2.101 0.411 2.413l0.2291 0.5677 0.0168-0.4786 0.0168-0.4786 0.5292 0.327v2.246l-0.8256 1.123c-0.9883 1.344-1.08 1.315-0.7266-0.2318l0.2701-1.183-0.1017-2.117-0.1017-2.117-1.228-4.403-0.2106 0.2173c-0.1158 0.1195-0.3386 1.149-0.4951 2.287l-0.2845 2.07 0.0232 6.973 0.3444 0.9639c0.1894 0.5301 0.7637 1.483 1.276 2.117s1.068 1.416 1.235 1.737l0.3029 0.5842-0.6162 6.49 0.3286 3.711c0.1807 2.041 0.5446 4.847 0.8086 6.235l0.48 2.524 0.9842 2.636c2.999 8.032 6.935 12.28 12.73 13.74l1.549 0.3907 3.551-0.1798zm16.66-68.58c-2.067-0.5566-6.206-2.916-9.105-5.189-1.181-0.9259-2.708-3.172-3.084-4.535l-0.277-1.005 0.7457-2.511 3.058-3.153 1.515-0.8891c0.833-0.489 2.023-1.077 2.644-1.307l1.13-0.418 6.879-0.03168 1.76 0.6083c3.119 1.078 5.348 2.957 6.633 5.589l0.5909 1.211 0.1976 3.757-1.145 4.173-1.241 1.627-1.568 0.8355c-0.8622 0.4595-2.268 1.018-3.123 1.241l-1.555 0.4051-1.333-0.01741c-0.7334-0.0096-1.958-0.1857-2.722-0.3914zm8.903-3.306 1.111-0.8046 0.7739-1.22c0.4256-0.6712 0.9111-1.636 1.079-2.144l0.3049-0.9238-0.2683-3.342-1.389-2.369-1.123-0.9106c-0.6176-0.5008-1.787-1.282-2.598-1.735l-1.475-0.8246-4.147-1.061-3.752 0.0062-1.323 0.3534c-2.649 0.7077-5.057 2.35-5.692 3.881-0.5 1.207-0.3164 1.183 2.837-0.378 1.601-0.7923 3.434-1.589 4.073-1.77l1.162-0.3296 4.762 0.0022 1.706 0.593c0.938 0.3262 2.334 1.01 3.101 1.519l1.396 0.9263 1.582 2.151 0.617 2.757-0.309 0.9363c-0.17 0.515-0.6635 1.472-1.097 2.126l-0.7878 1.189-1.509 0.6252-2.052-0.1683-0.176-1.852 0.5916-1.976 1.104-0.591 1.523 0.3046v-0.3765c0-0.2071-0.5903-1.086-1.312-1.953l-1.312-1.576-2.991-1.464-4.042-0.2242-0.9117 0.6215c-0.5014 0.3418-1.15 1.03-1.442 1.53l-0.5304 0.9082-9e-3 1.34c-5e-3 0.7369 0.0847 1.684 0.1997 2.104l0.209 0.7645-1.954-0.317-1.016-0.7042c-0.5589-0.3873-1.255-1.077-1.547-1.532l-0.5304-0.8279-6e-3 1.323 1.034 1.697 2.769 1.581 2.034 0.3436 0.3877-0.3218c0.5293-0.4393 0.4866-0.9738-0.1414-1.772l-0.5292-0.6727v-1.005c0-0.553 0.114-1.305 0.2532-1.671l0.2532-0.666 1.665-0.8608 0.7756 0.3212c0.4266 0.1767 1.01 0.6188 1.296 0.9826l0.5202 0.6613v2.527l-0.5206 1.673-0.5206 1.673 0.4895 0.4895 0.3981-0.3304c0.219-0.1817 0.6411-0.9799 0.9381-1.774 1.736-4.641 3.763-6.282 2.538-2.055-1.125 3.88-0.6967 5.319 1.599 5.378l0.8202 0.02089zm-24.55-13.22c0.232-0.3638 0.8932-1.024 1.469-1.468l1.048-0.8064 3.671-1.206 3.493-0.2939 1.004 0.5833-1.026 8e-3c-2.761 0.02166-7.406 1.539-9.054 2.959l-1.029 0.886zm1.328 80.51 1.225-0.5522 3.43-3.365 0.8006-1.588c0.4403-0.8731 0.9854-2.21 1.211-2.971l0.4106-1.383-0.5402-0.3339-0.7142 0.6843c-0.3928 0.3764-1.468 1.14-2.39 1.698l-1.676 1.013-0.6001 1.475c-0.3301 0.8113-0.882 1.858-1.226 2.326l-0.6263 0.8514-1.963 1.005-2.535-0.0707 2.427-0.3409 0.7709-0.4887c1.318-0.8356 2.755-2.983 2.755-4.116 0-0.641 3e-3 -0.6408-1.852-0.1428-0.8004 0.2148-1.999 0.392-2.663 0.3937l-1.208 3e-3 -1.542 3.225-0.6669 0.4672c-0.3668 0.257-1.121 0.6146-1.676 0.7948l-1.009 0.3275-0.8628-0.1619c-0.4746-0.089-1.092-0.3451-1.372-0.5691l-0.509-0.4072 0.5696 0.1557c0.3133 0.0856 1.25 0.1638 2.083 0.1737l1.513 0.0181 0.6956-0.5151c0.3826-0.2833 0.9535-0.8939 1.269-1.357l0.5731-0.8417 0.1857-1.099 0.1857-1.099-0.8669-0.6339-0.9868 0.3522c-0.5427 0.1937-1.225 0.3522-1.516 0.3522h-0.5292l1.058-0.4157c0.5821-0.2286 1.488-0.4724 2.012-0.5417l0.954-0.126 1.154 1.467 1.436-0.5033 0.6618-1.185c0.364-0.6518 1.156-1.666 1.76-2.253l1.098-1.067 0.6874-2.253c0.378-1.239 0.6874-2.649 0.6874-3.132v-0.8786l-0.3439 0.2854c-0.1891 0.157-0.91 1.359-1.602 2.672-0.692 1.312-1.363 2.451-1.491 2.53l-0.2331 0.144 0.2249-0.7327c0.1237-0.403 0.7202-2.028 1.325-3.612 0.6053-1.583 1.213-3.548 1.35-4.366l0.2498-1.487-0.1633-2.117c-0.0898-1.164-0.3895-3.182-0.666-4.485l-0.5026-2.368-1.289-1.947-1.823-1.212c-1.886-1.254-5.65-2.915-6.278-2.77l-0.3581 0.0821 1.943 5.556-0.0106 4.63-0.0106 4.63-0.6111 3.44c-0.3361 1.892-0.7017 4.452-0.8124 5.689l-0.2013 2.249-0.0369-2.149c-0.0203-1.182 0.1545-3.92 0.3885-6.085 0.234-2.165 0.4307-5.072 0.4371-6.459l0.0117-2.522-0.3413-1.447c-0.4928-2.089-1.231-3.532-2.567-5.019l-1.175-1.307-3.341-1.645-1.519 0.1736-0.0619 1.72c-0.0341 0.9459-0.256 3.76-0.4932 6.253l-0.4313 4.534 2.167 2.741 0.804 2.707v2.602l0.3769 0.8337c0.2073 0.4586 0.7961 1.759 1.309 2.89 0.5124 1.131 1.176 2.368 1.475 2.748l0.5436 0.691v1.663l0.8238 1.176 1.425 0.0778-1.588 0.2148c-0.8731 0.1181-2.33 0.2954-3.237 0.3939l-1.649 0.1791-0.4372-0.3629c-0.2405-0.1996-0.666-0.8966-0.9456-1.549l-0.5084-1.186-0.1493-1.599-0.1493-1.599 1.97-4.757-0.2392-2.501-1.706-3.466-1.31-0.8584-0.5947 0.5947 0.0535 2.586c0.0294 1.422 0.1743 4.134 0.3219 6.026l0.2684 3.44 0.4054 1.569c0.223 0.8627 0.6826 2.113 1.021 2.778l0.616 1.21 4.153 4.026 1.188 0.6041c0.6531 0.3323 1.784 0.8235 2.514 1.092l1.326 0.4874 6.879-0.1524zm-8.745-8.966 0.0209-0.5071 0.139 0.3473c0.0764 0.191 0.067 0.4192-0.0209 0.5071-0.0879 0.0879-0.1504-0.0683-0.139-0.3473zm-0.2437-1.169v-0.6615l0.1334 0.3307c0.0734 0.1819 0.0734 0.4796 0 0.6614l-0.1334 0.3307zm-22.96 5.092-0.9115-2.579-0.5832-0.4908c-0.3208-0.2699-1.126-0.7658-1.789-1.102-0.6632-0.3361-2.153-1.317-3.31-2.18l-2.104-1.569-2.384-2.488c-6.232-6.503-9.42-11.42-14.51-22.38-0.5535-1.192-1.176-2.308-1.383-2.48l-0.3762-0.3122v1.03c0 0.5664 0.2435 1.92 0.5411 3.009l0.5411 1.979 3.155 6.372 2.482 3.296c2.564 3.405 9.275 11.1 9.679 11.1 0.1259 0 1.595 1.578 3.266 3.506 6.893 7.958 9.187 9.537 7.686 5.291zm19.42-2.32 0.6186-0.7191-0.0807-0.694-0.0807-0.694-0.715-0.3411c-0.7933-0.3784-1.314-0.9914-2.393-2.818l-0.7269-1.23-0.5238 0.2803c-0.2881 0.1542-0.6569 0.529-0.8196 0.833l-0.2958 0.5527 0.01 1.274c5e-3 0.7009 0.1387 1.753 0.2961 2.337l0.2862 1.063 1.442 1.138 2.364-0.2641zm14.46-0.3847 0.6786-0.258 1.013-1.666 0.6497-4.565-0.1786-7.011-0.1786-7.011 0.294-1.56c0.5935-3.15 1.925-5.404 5.995-10.15 2.271-2.647 3.251-4.034 2.853-4.034-0.471 0-3.869 1.907-6.317 3.545l-2.94 1.967-3.015 3.018-0.3166 1.441 1.302 3.919 0.6538 6.085 0.0124 4.366 0.0124 4.366-0.732 2.616c-0.4026 1.439-0.9602 3.195-1.239 3.903l-0.5071 1.287h0.6404c0.3522 0 0.9457-0.1161 1.319-0.258zm-52.34-28.53-0.6675-2.113-0.8676-5.916-0.188-5.471-0.188-5.471-0.318 0.746c-0.1749 0.4103-0.4516 1.601-0.6148 2.646l-0.2968 1.9 0.143 3.572 0.143 3.572 0.5719 2.116c0.5542 2.051 2.613 6.869 2.839 6.644 0.0613-0.0613-0.1889-1.062-0.556-2.224zm58.36-10.77c1.792-0.8028 3.707-1.533 4.256-1.622 0.5489-0.0895 1.073-0.2838 1.164-0.4319l0.1664-0.2693-3.481 0.2794-4.404 2.134-0.6414 0.6848c-0.8591 0.9171-0.8046 0.9028 2.94-0.7748zm9.514-1.522c1.212-1.249 2.212-3.065 2.483-4.509l0.1836-0.9787-0.4326-0.6603c-0.5805-0.886-0.8586-0.8315-1.053 0.2062-0.1653 0.8813-1.457 3.571-3.06 6.371l-0.8869 1.549 0.8487-0.4389c0.4668-0.2414 1.33-0.9346 1.918-1.54zm-20.67-0.3919c1.96-2.133 3.055-3.959 3.452-5.755l0.2926-1.323-0.5897-1.527-1.25 0.1515c-3.346 0.4056-4.534 1.33-4.243 3.302 0.1229 0.8322 0.2314 2.733 0.2412 4.225l0.0178 2.712h0.2191c0.1205 0 0.9573-0.8037 1.86-1.786zm18.84-0.6615c0.6692-1.201 1.353-2.7 1.52-3.333l0.3028-1.15-0.5818-1.669-1.688-1.441-2.21-0.3314-1.111 0.3525v2.172l0.4379 0.4839c0.5872 0.6489 0.8497 0.6128 1.771-0.2438l0.7829-0.7276-0.4611 1.058-0.0157 2.91c-9e-3 1.601-0.1098 3.178-0.225 3.506l-0.2093 0.5953h0.2351c0.1293 0 0.7826-0.9823 1.452-2.183zm-68.95-6.019c0.3843-0.6548 2.048-3.229 3.696-5.72l2.998-4.529 3.851-4.149-1.191 0.8534c-2.814 2.017-5.822 5.335-8.029 8.857l-1.457 2.324-0.6603 1.777c-0.3632 0.9773-0.7367 2.075-0.83 2.438l-0.1697 0.6615 0.5461-0.6615c0.3004-0.3638 0.8606-1.197 1.245-1.852zm57.1-0.2921 0.7186-1.086 0.7798 1.113h0.8986c0.4942 0 1.202-0.1382 1.572-0.3071l0.6739-0.3071v-0.9974l-1.299-1.299h-2.035l-0.6225 0.6225-1.039-0.94h-0.9686c-0.5327 0-1.076 0.1077-1.208 0.2392l-0.2392 0.2392 0.4262 1.441c0.5413 1.83 0.8293 2.367 1.27 2.367h0.3524zm7.236 0.7683c0.1746-0.1746 0.3175-0.5768 0.3175-0.8936v-0.5761l-0.7683-0.6377-0.9454 0.1821-0.0953 0.4948c-0.2173 1.129 0.8091 2.113 1.492 1.431zm-56.15-15.07 3.158-2.289 6.497-3.269 0.4254-0.6493c1.659-2.533-8.133 2.137-12.67 6.042l-1.514 1.303-1.157 1.766c-0.6364 0.9711-1.238 1.991-1.336 2.267l-0.1789 0.501 1.81-1.692c0.9952-0.9304 3.23-2.722 4.967-3.98zm34.39-8.18c0.2435-0.394-0.0388-0.6082-0.5454-0.4138l-0.4251 0.1631 0.1647 0.2665c0.2145 0.347 0.5861 0.3398 0.8058-0.01573z"/></g></svg>
